<?xml version="1.0" encoding="utf-8"?>
<!-- Generator: Adobe Illustrator 19.0.1, SVG Export Plug-In . SVG Version: 6.00 Build 0)  -->
<svg version="1.1" id="Layer_1" xmlns="http://www.w3.org/2000/svg" xmlns:xlink="http://www.w3.org/1999/xlink" x="0px" y="0px"
	 viewBox="0 0 69.9 76.5" style="enable-background:new 0 0 69.9 76.5;" xml:space="preserve">
<style type="text/css">
	.st0{fill:#FFFFFF;}
</style>
<path class="st0" d="M40.1,55.3l-3.5-9.1l0,0c-0.3-0.9-1-1.4-1.8-1.4c-0.8,0-1.5,0.5-1.8,1.4l-3.1,9.1c-0.3,0.8-0.2,1.7,0.3,2.4
	c0.4,0.6,1,0.9,1.6,0.9c0,0,0,0,0,0c0.5,0,0.9-0.3,1.1-0.7l1.6-2.8c0.2-0.3,0.6-0.3,0.7,0l1.9,2.9c0.2,0.3,0.6,0.6,1,0.6
	c0.1,0,0.1,0,0.2,0h0c0.6,0,1.2-0.3,1.6-0.9C40.3,57,40.4,56.1,40.1,55.3z"/>
<path class="st0" d="M34.9,0c-19.3,0-35,15.7-35,35l0.2,10.9c0,0,0,0.1,0,0.1c0.9,9.7,5.7,15.9,14.6,19.1c0.5,0.2,1.1,0.3,1.7,0.3
	c1,0,1.9-0.3,2.8-0.5c0.4-0.1,0.8-0.2,1.2-0.3c0.1,0,0.1,0,0.2,0.1c-0.5,9.6,1.9,11.5,3.3,11.8c0.2,0,0.2,0,2.9,0.1c1,0,1.9,0,2.1,0
	c0,0,0.1,0,0.1,0h11.9c0,0,0.1,0,0.1,0c0.2,0,1.1,0,2.1,0c2.7,0,2.7,0,2.9-0.1c1.5-0.3,3.8-2.2,3.3-11.8c0-0.1,0.1-0.1,0.2-0.1
	c0.4,0.1,0.8,0.2,1.2,0.3c0.9,0.2,1.8,0.5,2.8,0.5c0.6,0,1.2-0.1,1.7-0.3C64,61.9,68.8,55.7,69.8,46c0,0,0-0.1,0-0.1L69.9,35
	C69.9,15.7,54.2,0,34.9,0z M66.8,45.8c-0.8,8.5-4.8,13.7-12.6,16.5c-0.7,0.2-1.6,0-2.7-0.3c-0.5-0.1-0.9-0.3-1.4-0.3
	c-1.8-0.4-3.5,0.8-3.8,2.5c0,0.1,0,0.3,0,0.4c0.2,3.2-0.1,6.4-0.6,8.1c-0.2,0.5-0.6,0.9-1.1,0.9c-0.4,0-1,0-1.5,0
	c-0.7,0-1.3-0.6-1.2-1.3l0.4-5.6c0.1-0.8-0.6-1.5-1.4-1.6c-0.8-0.1-1.5,0.6-1.6,1.4l-0.4,6c0,0.6-0.6,1.1-1.2,1.1l0,0
	c-0.7,0-1.2-0.5-1.2-1.2v-5.1c0-0.8-0.7-1.5-1.5-1.5s-1.5,0.7-1.5,1.5v5.1c0,0.7-0.5,1.2-1.2,1.2h0c-0.6,0-1.2-0.5-1.2-1.1l-0.4-6
	c-0.1-0.8-0.8-1.5-1.6-1.4c-0.8,0.1-1.5,0.8-1.4,1.6l0.4,5.6c0,0.7-0.5,1.3-1.2,1.3c-0.5,0-1.1,0-1.6,0c-0.5,0-1-0.4-1.1-0.9
	c-0.5-1.6-0.7-4.9-0.6-8.1c0-0.1,0-0.3,0-0.4c-0.3-1.7-2.1-2.9-3.8-2.5c-0.5,0.1-0.9,0.2-1.3,0.3c-1,0.3-1.9,0.5-2.6,0.3
	C8,59.5,4,54.3,3.1,45.8L2.9,35c0-17.6,14.4-32,32-32s32,14.4,32,32L66.8,45.8z"/>
</svg>
